<svg viewBox="0 0 36.39 36.39" xmlns="http://www.w3.org/2000/svg"><g fill="#fff"><path d="m23.73 36.39h-11.07a12.68 12.68 0 0 1 -12.66-12.66v-11.07a12.68 12.68 0 0 1 12.66-12.66h11.07a12.68 12.68 0 0 1 12.66 12.66v11.07a12.68 12.68 0 0 1 -12.66 12.66zm-11.07-33.39a9.67 9.67 0 0 0 -9.66 9.66v11.07a9.67 9.67 0 0 0 9.66 9.66h11.07a9.67 9.67 0 0 0 9.66-9.66v-11.07a9.67 9.67 0 0 0 -9.66-9.66z"/><path d="m22.22 27.88v-6.22c0-.25 0-.25.24-.25h3.43a.13.13 0 0 0 .15-.13c0-.18 0-.37.07-.56.05-.45.09-.89.14-1.34.08-.67.18-1.34.25-2 0-.36 0-.36-.32-.36h-3.76c-.1 0-.2 0-.2-.14 0-1 0-2 0-2.94a1.06 1.06 0 0 1 .76-1 3.18 3.18 0 0 1 1-.14h2.26c.22 0 .25 0 .25-.24v-3.98c0-.21 0-.25-.24-.25-1.54 0-3.07-.05-4.6.06a7.37 7.37 0 0 0 -2.27.48 4.13 4.13 0 0 0 -2.38 2.36 7.34 7.34 0 0 0 -.48 2.67v2.83c0 .27 0 .27-.26.27h-2.52c-.25 0-.27 0-.27.27v3.89c0 .24 0 .25.26.25h2.49c.29 0 .29 0 .29.29v12.3.22a.13.13 0 0 0 .15.15h5.24c.29 0 .31 0 .31-.31z"/></g></svg>