<svg viewBox="0 0 36.39 36.39" xmlns="http://www.w3.org/2000/svg"><g fill="#fff"><path d="m18.19 26.78a8.59 8.59 0 1 1 8.59-8.59 8.59 8.59 0 0 1 -8.59 8.59zm0-14.17a5.59 5.59 0 1 0 5.59 5.58 5.6 5.6 0 0 0 -5.59-5.58z"/><path d="m23.73 36.39h-11.07a12.68 12.68 0 0 1 -12.66-12.66v-11.07a12.68 12.68 0 0 1 12.66-12.66h11.07a12.68 12.68 0 0 1 12.66 12.66v11.07a12.68 12.68 0 0 1 -12.66 12.66zm-11.07-33.39a9.67 9.67 0 0 0 -9.66 9.66v11.07a9.67 9.67 0 0 0 9.66 9.66h11.07a9.67 9.67 0 0 0 9.66-9.66v-11.07a9.67 9.67 0 0 0 -9.66-9.66z"/></g></svg>