<svg viewBox="0 0 37.12 37.12" xmlns="http://www.w3.org/2000/svg"><g fill="#fff"><path d="m18.56 35.29-1-.81c-4-3.37-6.45-9.32-6.45-15.92s2.45-12.56 6.49-15.92l1-.81 1 .81c3.96 3.36 6.4 9.36 6.4 15.92s-2.4 12.55-6.44 15.92zm0-29.44c-2.74 2.91-4.41 7.64-4.41 12.71s1.67 9.8 4.41 12.71c2.74-2.91 4.44-7.64 4.44-12.71s-1.7-9.8-4.44-12.71z"/><path d="m18.56 37.12a18.56 18.56 0 1 1 18.56-18.56 18.59 18.59 0 0 1 -18.56 18.56zm0-34.12a15.56 15.56 0 1 0 15.56 15.56 15.58 15.58 0 0 0 -15.56-15.56z"/><path d="m1.5 21.33h34.12v3h-34.12z"/><path d="m1.5 12.79h34.12v3h-34.12z"/></g></svg>