<svg viewBox="0 0 233.46 23.01" xmlns="http://www.w3.org/2000/svg"><g fill="#fff"><path d="m173.74 5.36h.14v17.3h-.14z"/><path d="m178.68 5.36h10.53v17.31h-2.15v-4.2h-8.38z"/><path d="m195.81 5.36 7.02 17.31h-8.8v-17.31z"/><path d="m209.04 5.36-3.93 10.88-3.93-10.88z"/><path d="m214.3 5.36h1.69v17.31h-8.71z"/><path d="m233.46 5.36v17.31h-3.43v-4.08h-9.3v-2.75h8.31v-3.78h-8.31v-2.62h9.17v-4.08z"/><path d="m21.27 10.16v9a8 8 0 0 0 0-9zm12.63 2.16a8.33 8.33 0 0 0 -5.21-1.52h-2.63v-5.44h-4.79v3.54a8.77 8.77 0 0 1 0 11.55v2.22h7.66a7.54 7.54 0 0 0 5.07-1.6 5.44 5.44 0 0 0 1.88-4.38 5.17 5.17 0 0 0 -1.98-4.37zm-3.47 5.79a2.93 2.93 0 0 1 -1.87.53h-2.5v-4.08h2.53a2.8 2.8 0 0 1 1.82.54 1.78 1.78 0 0 1 .67 1.46 1.87 1.87 0 0 1 -.65 1.55zm7.48-12.75v17.31h4.79v-17.31z"/><path d="m45.77 22.67v-17.31h15.5v17.31h-4.8v-13.1h-5.91v13.1z"/><path d="m68.38 22.92a8 8 0 0 1 -4.15-1.17l1.88-3.46a3.4 3.4 0 0 0 2 .6 1.94 1.94 0 0 0 1.51-.75l-6.82-12.78h5.34l3.93 8.14 3.71-8.14h5.22l-6.75 13.2a9.23 9.23 0 0 1 -2.53 3.35 5.42 5.42 0 0 1 -3.34 1.01z"/><path d="m90.85 23a8.76 8.76 0 0 1 -8.92-9 8.69 8.69 0 0 1 2.61-6.41 8.86 8.86 0 0 1 6.51-2.59 8.48 8.48 0 0 1 7.27 3.66l-3.51 2.74a4.76 4.76 0 0 0 -3.81-2 3.75 3.75 0 0 0 -3 1.34 4.8 4.8 0 0 0 -1.13 3.26 4.83 4.83 0 0 0 1.13 3.32 3.76 3.76 0 0 0 3 1.32 4.15 4.15 0 0 0 2.15-.53 7.16 7.16 0 0 0 1.76-1.57l3.61 2.57a10.27 10.27 0 0 1 -3.17 2.89 9 9 0 0 1 -4.5 1z"/><path d="m118.61 22.67v-17.31h4.8v6.48h6.16v-6.48h4.79v17.31h-4.79v-6.58h-6.16v6.58z"/><path d="m152.79 20.39a9.78 9.78 0 0 1 -13.3 0 8.62 8.62 0 0 1 -2.66-6.39 8.61 8.61 0 0 1 2.68-6.38 9.76 9.76 0 0 1 13.3 0 8.59 8.59 0 0 1 2.66 6.38 8.55 8.55 0 0 1 -2.68 6.39zm-6.61-1.7a4.08 4.08 0 0 0 3.17-1.36 4.76 4.76 0 0 0 1.23-3.33 4.69 4.69 0 0 0 -1.26-3.3 4.14 4.14 0 0 0 -3.19-1.38 4 4 0 0 0 -3.13 1.38 4.77 4.77 0 0 0 -1.25 3.3 4.76 4.76 0 0 0 1.25 3.3 4.12 4.12 0 0 0 3.18 1.39z"/><path d="m173.89 5.36v17.31h-4.75v-9.74l-6.7 9.74h-4.47v-17.31h4.75v9.74l6.69-9.74z"/><path d="m166.08 4.25a4.31 4.31 0 0 1 -2.93-1 4.43 4.43 0 0 1 -1.43-2.78l2.63-.47c.36 1 .93 1.48 1.73 1.48s1.39-.48 1.75-1.48l2.62.47a4.37 4.37 0 0 1 -1.45 2.79 4.37 4.37 0 0 1 -2.92.99z"/><path d="m21.27 10.16a7.72 7.72 0 0 0 -.94-1.16 8 8 0 0 0 -4.44-2.25 8 8 0 0 0 -13.55-4.41 7.93 7.93 0 0 0 -2.34 5.66v14.67h14.68a8 8 0 0 0 5.65-2.34 8.36 8.36 0 0 0 .94-1.14 8 8 0 0 0 0-9.03zm-15.67 4.24-2-5.9v-.05a4.31 4.31 0 0 1 1.4-3.18 4.56 4.56 0 0 1 4.44-.79 3.84 3.84 0 0 1 2 1.59 2.25 2.25 0 0 1 .39 1.56 2.16 2.16 0 0 1 -.41.9l-.19.19-.14.13-4.23 4.28zm12 3.44a4.26 4.26 0 0 1 -3.18 1.42l-5.91-2 1.21-1.26 4.28-4.29.13-.14.2-.18a2 2 0 0 1 .89-.42 2.22 2.22 0 0 1 1.56.39 3.87 3.87 0 0 1 1.59 2 4.57 4.57 0 0 1 -.79 4.48z"/><path d="m100.57 22.67v-17.31h4.8v7l5.95-7h5.68l-6.55 7.44 6.77 9.87h-5.76l-4.35-6.43-1.75 2v4.48z"/></g></svg>