<svg viewBox="0 0 70.37 89.31" xmlns="http://www.w3.org/2000/svg"><path d="m53.92 29c-.71-.49-.86-.84-.37-1.63q8.45-13.65 16.82-27.37h-5.72q-7.74 12.63-15.47 25.27c-.3.49-.56.76-1.2.49a33 33 0 0 0 -14.81-2.56l4.28-7q4.95-8.09 9.89-16.2h-5.64c-2 3.23-4 6.46-5.93 9.69-.58.94-.59.94-1.17 0q-3-4.84-5.92-9.67h-5.68q4.41 7.26 8.86 14.48a1.32 1.32 0 0 1 0 1.62c-1.52 2.41-3 4.85-4.46 7.3a2.24 2.24 0 0 1 -1.4 1.09 16.81 16.81 0 0 0 -3.38 1.21c-.7.34-1 .18-1.42-.47q-5.78-9.49-11.59-19c-1.32-2.06-2.61-4.15-3.88-6.25h-5.73l16.5 26.91c1.05 1.72 1 1.27-.46 2.38-10.04 7.64-14.83 17.71-13.67 30.36a31.2 31.2 0 0 0 11.18 21.49 32 32 0 0 0 27.74 7.57 32 32 0 0 0 20.89-13.43 31.82 31.82 0 0 0 5.76-23.47 32.25 32.25 0 0 0 -14.02-22.81zm-18.78 54.92a27.7 27.7 0 1 1 27.73-27.69 27.64 27.64 0 0 1 -27.73 27.69z" fill="#2c2e84"/><path d="m35.19 78.37a22.18 22.18 0 1 1 22.14-21.82 22.14 22.14 0 0 1 -22.14 21.82z" fill="#f8b133"/></svg>