<svg viewBox="0 0 36.39 36.39" xmlns="http://www.w3.org/2000/svg"><g fill="#fff"><path d="m23.73 36.39h-11.07a12.68 12.68 0 0 1 -12.66-12.66v-11.07a12.68 12.68 0 0 1 12.66-12.66h11.07a12.68 12.68 0 0 1 12.66 12.66v11.07a12.68 12.68 0 0 1 -12.66 12.66zm-11.07-33.39a9.67 9.67 0 0 0 -9.66 9.66v11.07a9.67 9.67 0 0 0 9.66 9.66h11.07a9.67 9.67 0 0 0 9.66-9.66v-11.07a9.67 9.67 0 0 0 -9.66-9.66z"/><path d="m9.71 13.61h1.44a1 1 0 0 1 .94.62 32.49 32.49 0 0 0 1.75 3.49 3.61 3.61 0 0 0 .93 1.13.89.89 0 0 0 .23.15.41.41 0 0 0 .57-.23 2.59 2.59 0 0 0 .2-.82 9.87 9.87 0 0 0 0-2.82 1.17 1.17 0 0 0 -1-1.1c-.23 0-.26-.15-.1-.34a1.44 1.44 0 0 1 .88-.49 13.12 13.12 0 0 1 2.87-.1 3.66 3.66 0 0 1 .75.09c.65.15.78.32.87 1a14.87 14.87 0 0 1 0 2.11 15.3 15.3 0 0 0 0 2 1 1 0 0 0 .18.5.4.4 0 0 0 .61.09 4.52 4.52 0 0 0 .95-1.05 18 18 0 0 0 1.91-3.56.81.81 0 0 1 .94-.64h3.35a1.5 1.5 0 0 1 .59.1.43.43 0 0 1 .31.48 2.38 2.38 0 0 1 -.38 1.1 17 17 0 0 1 -1.5 2.26c-.45.6-.92 1.18-1.33 1.81a.9.9 0 0 0 .07 1.22c.38.46.85.83 1.27 1.25a10.81 10.81 0 0 1 1.73 2.08 1.44 1.44 0 0 1 .18.6.67.67 0 0 1 -.66.69 4.6 4.6 0 0 1 -.64.05c-.81 0-1.63 0-2.44 0a2.6 2.6 0 0 1 -1.95-.8c-.5-.47-.92-1-1.4-1.52a2.16 2.16 0 0 0 -.61-.47.46.46 0 0 0 -.6.1 1.93 1.93 0 0 0 -.56 1.41v.5c-.05.52-.28.78-.8.78a9.4 9.4 0 0 1 -2.94-.2 7.49 7.49 0 0 1 -1.93-.88 8.79 8.79 0 0 1 -2.1-1.79 28.87 28.87 0 0 1 -2.71-4c-.43-.78-.85-1.57-1.25-2.37-.33-.52-.54-1.04-.77-1.62s0-.67.41-.77a2.45 2.45 0 0 1 .54 0h1.2z"/></g></svg>